<?xml version="1.0" encoding="UTF-8" standalone="no"?><!DOCTYPE svg PUBLIC "-//W3C//DTD SVG 1.1//EN" "http://www.w3.org/Graphics/SVG/1.1/DTD/svg11.dtd"><svg width="100%" height="100%" viewBox="0 0 1366 1024" version="1.1" xmlns="http://www.w3.org/2000/svg" xmlns:xlink="http://www.w3.org/1999/xlink" xml:space="preserve" xmlns:serif="http://www.serif.com/" style="fill-rule:evenodd;clip-rule:evenodd;stroke-linejoin:round;stroke-miterlimit:2;"><rect id="Artboard1" x="0" y="0" width="1366" height="1024" style="fill:none;"/><clipPath id="_clip1"><rect id="Artboard11" serif:id="Artboard1" x="0" y="0" width="1366" height="1024"/></clipPath><g clip-path="url(#_clip1)"><g><path d="M656.625,400.53c-3.97,7.281 -13.957,9.446 -21.46,10.181c-9.985,-0.197 -20.07,0.436 -30.057,0.653c5.648,26.155 23.319,50.35 40.823,69.936c9.844,5.757 18.934,15.179 20.409,26.954c2.542,20.118 -19.361,22.94 -34.58,22.912c-16.993,-0.031 -38.956,-1.527 -52.722,-12.773c-3.938,-3.322 -6.887,-8.608 -8.472,-13.439c-0.768,-4.14 -1.728,-8.384 -2.753,-12.468c-18.236,-13.187 -30.947,-47.103 -40.994,-66.661c-41.042,13.097 -79.691,32.712 -119.073,49.922c-5.085,17.865 -8.255,36.548 -11.136,54.88c0.985,3.333 1.884,7.639 2.205,11.1c0.901,9.669 -1.806,19.592 -8.566,26.739c-6.751,7.129 -16.006,11.878 -25.701,13.361c-11.627,1.759 -23.402,-2.189 -32.307,-9.704c-8.913,-7.555 -14.477,-18.889 -14.477,-30.623c-0,-10.623 5.396,-20.448 12.847,-27.735c23.188,-143.589 44.414,-292.32 107.661,-424.845c-0.248,-4.285 -0.051,-9.335 0.49,-13.594c2.246,-17.587 11.755,-33.528 26.719,-43.217c7.033,-4.345 15.251,-7.497 23.169,-9.816c13.35,-3.904 28.149,-7.353 42.135,-5.618c11.791,1.848 18.486,10.128 16.228,22.081c-2.428,12.942 -8.626,25.36 -16.19,36.039c-0.759,86.878 19.546,174.116 42.338,257.428c9.064,-2.019 18.082,-4.873 27.127,-7.083c7.167,-1.961 15.167,-4.073 22.672,-3.974c4.981,0.065 10.994,1.435 15.032,4.529c14.838,11.682 25.185,28.964 25.635,48.128c0.249,8.84 -2.52,19.102 -7.002,26.707Zm-159.568,-43.021c-13.773,-51.148 -23.06,-103.868 -32.369,-155.978c-22.804,62.156 -43.225,128.074 -49.055,194.312c-0,0 81.424,-38.334 81.424,-38.334Z" style="fill:current;fill-rule:nonzero;stroke:current;stroke-width:4px;"/><path d="M988.498,189.506c-2.705,12.199 -20.248,14.702 -30.382,15.652c-11.638,1.278 -27.892,4.366 -35.796,13.845c-0.001,-0 -116.969,136.563 -116.969,136.563c-0,0 -1.671,100.442 -1.671,100.442c-0.248,8.909 2.938,18.477 7.665,26c3.106,4.942 7.789,12.562 7.345,18.691c-0.345,4.739 -3.005,9.837 -5.708,13.622c-9.879,14.32 -29.475,17.386 -45.638,17.388c-12.66,0.002 -26.487,-2.466 -36.835,-10.237c-5.986,-4.408 -9.785,-11.174 -10.143,-18.63c-0.213,-4.456 0.316,-9.397 0.761,-13.836c0.531,-5.279 0.986,-11.054 0.836,-16.354c-0,-0 -1.909,-259.237 -1.909,-259.237c0.017,-5.42 -2.971,-11.527 -5.721,-16.071c-2.595,-4.286 -5.72,-10.152 -5.688,-15.295c0.022,-3.448 1.435,-7.196 2.948,-10.23c9.386,-17.402 41.409,-16.941 58.252,-16.907c13.881,0.03 38.673,1.195 43.356,17.707c1.038,3.422 2.226,8.835 2.252,12.407c0.031,4.434 -2.083,9.636 -5.692,12.363c-2.592,1.959 -5.75,5.241 -5.736,8.738c0,0 1.536,26.368 1.536,26.368c-0,0 61.282,-65.594 61.282,-65.594c6.681,-7.674 13.805,-15.142 20.79,-22.545c6.655,-7.062 15.849,-11.431 25.544,-12.025c17.053,-0.998 33.505,5.545 47.901,14.205c12.641,7.607 27.797,19.992 28.131,36.148c0,0.011 -0.709,6.814 -0.711,6.822Z" style="fill:current;fill-rule:nonzero;stroke:current;stroke-width:4px;"/><path d="M1295.38,296.459c-5.743,-0.793 -11.742,-4.164 -16.808,-6.81c-5.978,-3.122 -12.666,-6.528 -19.313,-7.89c-2.893,-0.595 -8.147,-0.769 -11.07,-0.389c0,0 -31.171,5.404 -31.171,5.404c-0,0 -5.99,221.035 -5.99,221.035c-0.876,11.707 9.251,24.407 16.059,32.988c5.75,7.249 16.533,20.986 12.183,31.05c-4.706,10.652 -18.21,14.287 -28.714,15.608c-17.181,2.136 -34.945,0.348 -51.788,-3.335c-25.438,-5.569 -55.621,-16.332 -68.422,-41.026c-6.765,-12.948 -1.054,-38.668 0.188,-52.716c2.555,-33.147 7.668,-66.108 9.09,-99.364c1.348,-34.201 2.7,-68.581 2.649,-102.811c-6.382,0.012 -13.406,2.665 -19.337,4.79c-8.082,2.899 -18.352,3.839 -26.783,2.065c-8.94,-1.877 -17.86,-5.633 -26.133,-9.451c-15.696,-7.12 -60.408,-22.734 -60.563,-44.476c-0.015,-2.027 1.396,-7.025 2.326,-8.832c4.148,-7.861 13.256,-9.932 21.482,-9.202c9.74,0.616 21.282,2.768 30.94,1.081c26.516,-2.395 53.051,-7.231 79.434,-10.853c-0,0 -6.903,-57.048 -6.903,-57.048c-1.433,-6.444 -5.752,-12.899 -9.405,-18.287c-3.412,-5.022 -7.83,-10.858 -9.539,-16.763c-0.85,-2.928 -0.461,-6.876 1.671,-9.221c14.729,-15.083 41.37,-11.001 59.454,-6.195c27.359,7.267 54.451,19.829 73.444,41.437c4.291,5.02 9.784,11.374 11.625,17.857c1.402,4.95 -2.058,10.441 -6.066,13.13c-3.747,2.505 -7.987,7.67 -6.939,12.513c0,0 5.033,31.259 5.033,31.259c10.679,-0.803 22.027,-4.21 31.609,-8.979c6.192,-2.861 14.145,-5.289 21.005,-3.853c2.856,0.595 5.615,1.659 8.259,2.891c23.961,9.984 41.721,25.914 41.721,53.371c0,7.328 -2.115,15.846 -5.932,22.183c-3.734,6.172 -9.993,9.833 -17.296,8.839Z" style="fill:current;fill-rule:nonzero;stroke:current;stroke-width:4px;"/></g><g><path d="M291.234,514.842c4.704,9.828 4.914,21.562 3.474,32.177c-6.456,47.833 -37.401,95.173 -60.608,136.46c-13.183,23.797 -47.339,94.344 -83.016,85.242c-6.115,-1.555 -9.933,-7.421 -11.952,-13.008c-1.233,10.629 -1.431,21.502 -1.392,32.193c0.096,26.012 2.452,52.036 5.607,77.842c0.174,4.08 1.891,9.456 3.111,13.361c1.373,4.388 2.973,9.226 3.211,13.867c0.392,7.622 -5.908,12.137 -12.533,14.106c-4.992,1.489 -11.365,0.662 -16.349,-0.335c-11.226,-2.23 -22.249,-6.818 -31.746,-13.205c-8.818,-5.617 -17.18,-13.88 -19.016,-24.596c-0.002,-0.013 -0.495,-6.583 -0.495,-6.596c-0.005,-4.969 1.967,-10.79 5.039,-14.76c1.585,-2.047 5.028,-5.88 5.007,-8.66c-3.766,-118.494 -5.657,-237.046 -8.407,-355.566c-0,-0.02 -1.532,-6.506 -1.538,-6.524c-0.784,-2.471 -1.556,-5.027 -1.556,-7.619c-0,-7.825 7.241,-12.871 13.856,-15.29c6.978,-2.646 15.279,-3.68 22.702,-3.037c9.953,0.876 20.569,4.239 30.189,6.87c9.835,1.516 23.823,-3.57 33.689,-5.015c17.899,-2.6 36.914,-2.214 54.407,2.664c30.812,8.605 54.226,31.258 68.316,59.429Zm-83.983,-1.476c-11.165,-2.792 -23.906,1.352 -34,5.942c-13.261,6.044 -25.924,14.984 -35.957,25.504c0,0 -1.114,128.364 -1.114,128.364c21.825,-14.3 36.422,-41.982 49.425,-63.819c13.576,-22.785 30.248,-49.902 32.89,-76.809c0.842,-8.537 -2.236,-16.926 -11.244,-19.182Z" style="fill:current;fill-rule:nonzero;stroke:current;stroke-width:4px;"/><path d="M529.931,965.377c-5.332,19.649 -23.444,26.518 -42.297,26.247c-6.349,-0.092 -13.794,-1.115 -19.518,-4.067c-8.373,-5.02 -12.23,-16.004 -14.472,-24.974c-4.895,-17.745 -9.654,-35.846 -16.22,-53.059c-0.035,22.773 -11.718,44.464 -28.317,59.628c-16.355,14.921 -37.386,21.391 -58.917,15.058c-32.077,-9.457 -50.478,-40.986 -60.156,-70.924c-4.093,-13.018 -7.224,-27.054 -8.113,-40.701c-2.293,-35.26 18.93,-62.72 49.532,-77.848c29.402,-11.139 57.955,-23.562 85.708,-38.375c1.444,-6.494 2.305,-13.356 2.379,-20.011c0.086,-7.726 -0.87,-19.41 -9.036,-23.2c-4.913,-2.286 -10.468,-4.521 -15.857,-5.255c-6.719,-0.922 -13.895,0.533 -19.002,5.205c-4.668,4.268 -9.366,8.502 -14.094,12.704c-6.87,3.613 -12.688,12.235 -17.033,18.457c-4.007,5.765 -10.361,11.5 -17.94,10.413c-10.58,-1.475 -19.283,-9.348 -25.279,-17.716c-6.643,-9.27 -11.17,-20.608 -11.076,-32.133c0.043,-5.232 1.477,-11.469 4.449,-15.856c9.11,-13.708 23.362,-23.172 38.406,-29.271c30.268,-12.024 64.963,-11.778 96.992,-10.277c23.82,1.082 42.523,15.096 50.627,37.522c10.833,31.212 11.464,67.699 13.596,100.399c2.612,43.155 4.952,88.185 15.12,130.327c1.388,7.031 6.768,14.193 11.174,19.575c4.481,5.469 9.71,12.891 10.106,20.254c0.143,2.635 -0.123,5.318 -0.762,7.878Zm-106.26,-151.911c-10.767,5.342 -21.57,10.471 -32.483,15.504c-10.635,4.893 -21.257,12.536 -29.497,20.828c-9.214,9.461 -19.505,22.564 -18.629,36.568c0.708,11.31 5.87,22.315 11.705,31.849c2.824,4.503 7.216,9.887 12.55,11.276c13.732,3.563 24.002,-16.999 28.65,-26.759c13.36,-28.054 21.221,-59.002 27.704,-89.266Z" style="fill:current;fill-rule:nonzero;stroke:current;stroke-width:4px;"/><path d="M813.51,673.78c-1.777,10.418 -14.082,15.376 -23.126,17.501c-10.031,2.51 -24.659,6.148 -31.514,14.525c-0,0 -101.484,121.098 -101.484,121.098c0,-0 0.318,95.545 0.318,95.545c0.075,8.828 3.341,18.161 7.906,25.677c3.248,5.345 7.742,12.879 7.786,19.352c0.035,4.933 -1.886,10.401 -4.12,14.759c-7.517,15.301 -25.073,20.071 -40.982,20.101c-12.37,0.024 -25.466,-3.456 -34.751,-11.987c-5.837,-5.258 -9.121,-12.827 -9.467,-20.631c-0.207,-4.724 0.241,-9.847 0.634,-14.56c0.45,-5.389 0.838,-11.191 0.676,-16.594c-0,-0 -1.144,-235.164 -1.144,-235.164c0.04,-4.715 -2.478,-9.962 -4.817,-13.89c-2.085,-3.5 -4.799,-8.411 -4.687,-12.677c0.074,-2.807 1.35,-5.857 2.684,-8.308c8.544,-14.553 35.58,-14.646 50.184,-14.842c11.494,-0.153 32.896,0.483 36.86,14.159c0.835,2.686 1.814,7.169 1.798,9.978c-0.022,3.717 -2.059,8.169 -5.012,10.474c-2.253,1.758 -4.984,4.664 -4.992,7.725c-0,0 1.187,23.039 1.187,23.039c-0,-0 53.4,-56.796 53.4,-56.796c6.214,-6.722 12.686,-13.36 19.236,-19.755c6.28,-6.13 14.648,-10.119 23.415,-10.855c13.829,-1.124 28.102,2.181 40.308,8.69c10.402,5.55 19.787,15.085 20.151,27.541c-0,0.009 -0.446,5.89 -0.447,5.895Z" style="fill:current;fill-rule:nonzero;stroke:current;stroke-width:4px;"/><path d="M1013.3,701.408c-4.142,0.841 -9.238,-0.376 -13.249,-1.411c-4.259,-1.102 -9.462,-2.356 -13.875,-1.716c-2.629,0.378 -5.188,1.439 -7.446,2.839c0,-0 -19.699,13.679 -19.699,13.679c-0,0 -2.126,208.558 -2.126,208.558c-0.547,9.36 4.177,18.876 9.048,26.576c4.5,7.11 8.931,16.56 6.267,25.114c-2.893,9.133 -10.06,16.517 -17.991,21.565c-8.701,5.523 -18.765,9.303 -29.076,10.153c-17.231,1.394 -32.798,-6.996 -39.023,-23.448c-5.292,-13.847 -1.308,-35.683 -0.803,-50.244c0.876,-31.873 2.076,-63.752 2.935,-95.635c0.783,-31.718 1.484,-63.532 1.197,-95.26c-4.415,1.461 -8.696,5.422 -12.195,8.354c-4.505,3.776 -11.21,7.165 -17.173,7.14c-5.746,-0.025 -11.923,-1.904 -17.286,-3.86c-12.567,-4.455 -43.384,-14.126 -43.5,-31.299c-0.019,-2.819 0.729,-5.656 1.799,-8.264c2.773,-6.615 8.943,-10.616 15.978,-11.309c6.636,-0.877 15.482,-1.139 21.534,-4.179c17.444,-6.796 34.274,-16.607 50.786,-25.398c0,-0 -2.596,-50.709 -2.596,-50.709c-0.342,-5.013 -2.402,-10.294 -4.424,-14.851c-1.817,-4.087 -4.06,-8.847 -4.506,-13.347c-0.294,-2.949 0.493,-6.417 2.02,-8.955c8.17,-12.967 22.533,-20.003 37.73,-19.727c16.116,0.266 32.141,5.322 41.7,19.126c2.579,3.889 5.417,8.865 5.938,13.579c0.531,4.832 -2.19,10.55 -4.992,14.354c-2.741,3.716 -5.633,9.251 -5.264,14.001c0,-0 1.897,28.378 1.897,28.378c7.656,-4.358 14.561,-11.147 20.364,-17.708c3.707,-4.008 9.063,-9.251 14.756,-10.113c1.941,-0.296 3.958,-0.146 5.886,0.226c21.219,2.656 34.651,15.898 36.004,37.518c0.476,7.606 -1.89,16.009 -5.304,22.739c-3.114,6.139 -8.262,12.096 -15.311,13.534Z" style="fill:current;fill-rule:nonzero;stroke:current;stroke-width:4px;"/><path d="M1297.66,610.645c1.021,8.014 -1.197,16.287 -4.655,23.469c-3.63,7.043 -9.065,15.14 -11.188,22.758c-22.031,62.945 -40.79,126.971 -63.043,189.831c-12.4,36.418 -23.835,73.599 -31.709,111.286c-1.831,5.657 -2.009,12.332 -2.479,18.233c-0.433,6.054 -2.122,12.786 -5.824,17.698c-6.78,8.704 -16.842,14.522 -27.326,17.591c-11.452,3.359 -31.077,7.343 -35.443,-8.066c-0.646,-2.695 -0.898,-5.801 -0.421,-8.546c0.769,-4.446 3.567,-9.006 5.989,-12.696c2.504,-3.823 5.132,-7.976 6.663,-12.318c-0,-0 18.829,-71.755 18.829,-71.755c0,-0 -68.024,-214.693 -68.024,-214.693c-2.148,-5.777 -5.525,-11.649 -8.431,-17.088c-2.595,-5.072 -5.257,-11.028 -5.634,-16.777c-0.183,-2.792 0.007,-5.624 0.487,-8.381c2.822,-16.808 18.009,-25.995 33.212,-30.445c9.089,-2.663 19.97,-4.805 29.212,-1.732c10.421,3.782 14.799,15.766 16.356,25.799c1.632,12.341 0.866,26.674 4.126,38.624c-0,0 32.406,108.839 32.406,108.839c-0,-0 48.989,-158.934 48.989,-158.934c2.135,-8.054 2.514,-17.066 3.588,-25.326c0.984,-7.33 3.489,-15.634 9.504,-20.451c2.97,-2.508 7.169,-4.284 11.029,-4.707c10.249,-1.109 20.34,3.606 28.075,9.993c8.354,6.911 14.439,16.938 15.712,27.794Z" style="fill:current;fill-rule:nonzero;stroke:current;stroke-width:4px;"/></g><path d="M187.268,144.377c-15.295,9.227 -25.151,26.846 -25.719,46.005c-0.087,2.911 -0,6.509 0.239,8.332c0.044,0.406 -0.097,0.471 -1.365,0.682c-2.686,0.464 -6.791,1.862 -10.525,3.574c-4.908,2.25 -8.572,4.611 -12.292,7.965l-1.324,1.204l-2.76,-0.753c-12.988,-3.595 -26.735,-2.153 -37.913,3.965c-9.246,5.062 -16.596,12.836 -21.522,22.796c-2.222,4.514 -4.401,11.169 -5.217,16.147c-1.612,9.69 -0.757,20.297 2.413,29.444c4.063,11.779 13.407,23.979 26.406,34.418c16.081,12.949 33.634,19.624 47.159,17.943c1.184,-0.145 2.579,-0.387 3.068,-0.497c0.793,-0.193 0.93,-0.142 1.051,0.371c0.113,0.431 0.317,0.565 0.746,0.51c0.406,-0.044 0.576,0.078 0.577,0.39c0.047,2.025 0.348,5.41 0.576,6.528c0.478,2.282 0.397,2.291 4.702,0.09c2.058,-1.029 4.497,-2.403 5.421,-3.054c1.218,-0.814 1.771,-1.096 1.904,-0.929c0.112,0.119 1.102,1.598 2.213,3.277c7.047,10.723 15.143,20.511 25.031,30.302c7.483,7.398 14.504,13.416 31.995,27.395c27.238,21.788 37.173,30.875 49.082,44.827c3.478,4.117 3.741,4.566 7.344,12.861c2.143,4.985 2.702,5.894 3.538,5.795c1.045,-0.138 0.924,-0.65 -1.18,-5.114c-1.369,-2.925 -1.763,-3.91 -1.256,-3.176c0.408,0.581 1.406,2.51 2.213,4.272c1.23,2.619 1.591,3.221 2.014,3.339c0.356,0.093 0.578,0.02 0.774,-0.297c0.242,-0.339 0.067,-0.969 -0.872,-3.267l-1.164,-2.848l0.965,1.547c1.676,2.727 2.086,3.25 2.57,3.312c0.793,0.12 1.161,-0.504 0.784,-1.326c-0.183,-0.399 -1.78,-3.077 -3.578,-5.947c-4.57,-7.426 -4.755,-7.768 -5.689,-11.233c-3.959,-14.526 -6.497,-29.363 -7.541,-44.288c-0.607,-8.702 -0.79,-15.922 -0.848,-34.709c-0.059,-19.411 -0.363,-28.196 -1.269,-38.665c-1.591,-17.857 -5.24,-36.419 -10.724,-54.395c-0.592,-1.974 -1.068,-3.632 -1.042,-3.7c0.036,-0.045 0.834,-0.724 1.808,-1.511c0.951,-0.777 1.798,-1.535 1.874,-1.74c0.165,-0.445 -1.217,-1.602 -3.97,-3.267c-1.36,-0.798 -2.475,-1.68 -2.726,-2.104c-0.405,-0.696 -0.381,-0.707 1.412,-2.438c5.52,-5.316 10.063,-13.508 12.912,-23.226c5,-17.241 5.142,-37.142 0.404,-53.926c-1.158,-4.016 -4.636,-11.602 -6.835,-14.913c-7.365,-10.919 -17.18,-18.754 -29.178,-23.23c-15.297,-5.72 -31.788,-4.498 -44.686,3.262Zm50.264,119.823c1.334,-0.128 2.913,-0.341 3.541,-0.458c0.907,-0.131 1.159,-0.076 1.374,0.393c0.162,0.353 0.445,0.536 0.793,0.49c0.487,-0.053 0.543,0.006 0.496,0.71c-0.048,1.073 0.359,5.434 0.629,6.703c0.149,0.699 0.367,1.111 0.617,1.223c0.512,0.249 3.813,-1.293 6.988,-3.231c1.287,-0.789 2.384,-1.434 2.452,-1.408c0.161,0.04 1.928,5.88 3.492,11.585c4.759,17.513 7.59,34.29 8.713,51.992c0.571,8.748 0.724,16.521 0.794,34.592c0.081,32.105 1.461,47.331 6.108,67.822c0.501,2.271 0.779,3.622 0.557,3.013c-3.715,-11.142 -7.497,-20.634 -13.181,-33.034c-8.828,-19.258 -14.652,-29.547 -34.013,-60.004c-6.531,-10.279 -10.777,-17 -10.938,-17.353c-0.043,-0.094 0.33,-0.52 0.852,-0.93c1.367,-1.11 1.366,-1.422 -0.064,-2.557c-0.664,-0.52 -2.042,-1.48 -3.062,-2.092c-1.03,-0.636 -2.1,-1.482 -2.375,-1.896l-0.494,-0.768l1.443,-1.315c3.079,-2.832 6.338,-7.253 8.739,-11.935c1.56,-3.045 4.646,-11.564 5.575,-15.429c1.633,-6.603 2.684,-15.099 2.822,-22.238l0.071,-3.813l2.829,0.096c1.559,0.053 3.919,-0.006 5.242,-0.158Zm-56.758,59.694c6.353,1.521 12.851,1.811 17.554,0.849c1.607,-0.339 1.838,-0.331 2.064,0.162c0.14,0.305 0.489,0.572 0.754,0.592c0.449,0.05 0.51,0.306 0.663,2.624c0.198,3.035 0.658,5.837 0.986,6.056c0.52,0.33 8.38,-3.728 11.212,-5.794c0.391,-0.264 21.46,32.991 28.421,44.891c11.979,20.428 20.897,39.388 27.877,59.265c1.836,5.183 4.332,12.735 4.512,13.562c0.076,0.477 -0.55,-0.145 -2.497,-2.408c-8.095,-9.476 -18.111,-19.236 -29.507,-28.847c-2.305,-1.928 -11.057,-9.056 -19.464,-15.803c-15.464,-12.407 -21.904,-17.839 -27.662,-23.271c-9.802,-9.233 -17.531,-17.91 -24.468,-27.463c-2.188,-2.975 -6.327,-9.092 -6.629,-9.75c-0.14,-0.305 0.079,-0.633 0.745,-1.165c0.499,-0.399 0.98,-0.961 1.035,-1.214c0.182,-0.595 -0.65,-1.293 -3.818,-3.308c-1.29,-0.83 -2.529,-1.796 -2.772,-2.14c-0.44,-0.651 -0.417,-0.661 1.016,-2c1.872,-1.682 4.741,-5.157 6.196,-7.501l1.136,-1.8l5.193,1.968c2.854,1.079 6.203,2.187 7.453,2.495Z" style="fill:current;fill-rule:nonzero;stroke:current;stroke-width:4px;"/></g></svg>